<svg width="137" height="44" viewBox="0 0 137 44" fill="none" xmlns="http://www.w3.org/2000/svg">
<path d="M37.21 0H5.3159C2.38001 0 0 2.46251 0 5.50017V38.4998C0 41.5375 2.38001 44 5.3159 44H37.21C40.1459 44 42.5259 41.5375 42.5259 38.4998V5.50017C42.5259 2.46251 40.1459 0 37.21 0Z" fill="#FEDD00"/>
<path d="M16.4391 26.9782C15.7704 26.2863 15.2481 25.458 14.9053 24.546C14.5625 23.6341 14.4068 22.6583 14.4481 21.6807C14.4893 20.7031 14.7266 19.7451 15.1449 18.8675C15.5631 17.9899 16.1532 17.2119 16.8777 16.5829C18.1682 15.5421 19.7656 14.9928 21.4015 15.0273C23.0374 15.0619 24.6119 15.6782 25.8602 16.7726C26.5817 17.3315 27.1604 18.0641 27.5462 18.9069C27.9321 19.7496 28.1133 20.677 28.0743 21.6087C28.0586 22.0283 28.1271 22.4467 28.2753 22.8376C28.4235 23.2285 28.6483 23.5835 28.9355 23.8802C29.3407 24.3 29.8553 24.5885 30.4163 24.7108C30.9774 24.833 31.5608 24.7835 32.0952 24.5685C32.6296 24.3534 33.0919 23.982 33.4257 23.4996C33.7595 23.0173 33.9503 22.4448 33.9749 21.852C34.0428 20.0733 33.7213 18.3017 33.0347 16.6695C32.348 15.0373 31.3138 13.5868 30.0093 12.4261C28.8117 11.2206 27.3964 10.271 25.8441 9.6314C24.2918 8.99184 22.6329 8.67488 20.9623 8.69863C19.2916 8.72238 17.6418 9.08637 16.107 9.76981C14.5723 10.4533 13.1827 11.4428 12.0176 12.6819C10.8525 13.921 9.93467 15.3854 9.31654 16.9915C8.6984 18.5976 8.39207 20.3139 8.41502 22.0425C8.43797 23.7711 8.78977 25.4781 9.45031 27.066C10.1109 28.6539 11.0672 30.0917 12.2648 31.2972C13.419 32.5712 14.8239 33.5742 16.3847 34.2384C17.9456 34.9026 19.626 35.2125 21.3125 35.1473C21.8898 35.129 22.4492 34.9361 22.9217 34.5924C23.3942 34.2487 23.759 33.7694 23.9711 33.2135C24.1832 32.6577 24.2332 32.0497 24.115 31.4648C23.9967 30.8798 23.7155 30.3435 23.3059 29.9222C23.0234 29.628 22.6854 29.3972 22.313 29.2439C21.9405 29.0906 21.5416 29.0182 21.141 29.0311C20.2587 29.0757 19.3779 28.9143 18.564 28.5589C17.7501 28.2036 17.0239 27.6633 16.4391 26.9782Z" fill="#222230"/>
<path d="M30.8712 35.1469C32.4705 35.1469 33.767 33.8054 33.767 32.1506C33.767 30.4959 32.4705 29.1544 30.8712 29.1544C29.2719 29.1544 27.9753 30.4959 27.9753 32.1506C27.9753 33.8054 29.2719 35.1469 30.8712 35.1469Z" fill="#222230"/>
<path d="M21.262 24.9954C22.8614 24.9954 24.1579 23.6539 24.1579 21.9991C24.1579 20.3444 22.8614 19.0029 21.262 19.0029C19.6627 19.0029 18.3662 20.3444 18.3662 21.9991C18.3662 23.6539 19.6627 24.9954 21.262 24.9954Z" fill="#222230"/>
<path d="M56.7629 24.8441C55.2304 24.8862 53.7129 24.5237 52.3534 23.7908C51.1328 23.1106 50.1416 22.0616 49.512 20.7836C48.8538 19.331 48.5165 17.745 48.5246 16.1408C48.5326 14.5366 48.8858 12.9543 49.5585 11.5089C50.2248 10.1975 51.2477 9.11674 52.5009 8.39992C53.8691 7.64145 55.4038 7.26247 56.9556 7.29989C58.0926 7.29675 59.2225 7.48579 60.3006 7.85953C61.286 8.18256 62.1925 8.72142 62.9586 9.43945L61.797 12.3793C61.1397 11.8209 60.3991 11.3765 59.6042 11.0634C58.862 10.7696 58.0746 10.6168 57.2799 10.6124C56.653 10.5806 56.0269 10.6892 55.4443 10.9308C54.8617 11.1724 54.3364 11.5412 53.9043 12.0122C53.0015 13.1705 52.5624 14.643 52.6776 16.1263C52.5788 17.5967 53.0175 19.0519 53.9069 20.2033C54.3451 20.6798 54.8783 21.0519 55.4695 21.2936C56.0607 21.5353 56.6957 21.6409 57.3304 21.6031C58.1147 21.5979 58.8915 21.4451 59.6229 21.1521C60.4257 20.836 61.1694 20.3782 61.821 19.799L62.9825 22.7389C62.1924 23.4549 61.2615 23.985 60.2541 24.2927C59.1269 24.6628 57.9508 24.8484 56.7682 24.8427L56.7629 24.8441Z" fill="#222230"/>
<path d="M65.6462 24.6188V0.0164795H69.685V11.1543L69.1999 11.1873C69.6547 9.99629 70.4629 8.98525 71.5084 8.29975C72.572 7.63029 73.7973 7.28654 75.0421 7.30834C78.9183 7.30834 80.8564 9.6262 80.8564 14.2619V24.6229H76.8203V14.4214C76.8987 13.3992 76.6361 12.38 76.0761 11.5338C75.7872 11.2089 75.4299 10.9571 75.0319 10.7978C74.634 10.6386 74.2059 10.5761 73.7809 10.6153C73.2295 10.5876 72.6787 10.682 72.1654 10.892C71.652 11.1021 71.1879 11.4231 70.804 11.8336C70.043 12.7192 69.6433 13.8754 69.689 15.0595V24.6201L65.6462 24.6188Z" fill="#222230"/>
<path d="M91.4559 24.8505C90.122 24.8777 88.808 24.5125 87.6669 23.7972C86.5591 23.075 85.6838 22.0282 85.1525 20.79C84.5272 19.3461 84.2194 17.7765 84.2515 16.1946C84.2149 14.5905 84.5226 12.998 85.1525 11.5318C85.7014 10.2722 86.5785 9.1956 87.6855 8.42284C88.8038 7.66769 90.1154 7.27729 91.4505 7.30218C92.7278 7.2706 93.9848 7.63658 95.0587 8.35271C96.0684 9.03911 96.8067 10.0773 97.1399 11.2788L96.7531 11.5112V7.73669H100.727V24.6181H96.7531V20.8065L97.1399 20.944C96.8106 22.1374 96.0702 23.1646 95.0587 23.8316C93.9797 24.5279 92.7272 24.8821 91.4559 24.8505ZM92.5549 21.6411C93.1449 21.6727 93.7338 21.5589 94.273 21.3091C94.8123 21.0593 95.2865 20.6806 95.6567 20.2042C96.4587 19.0133 96.8453 17.5756 96.7531 16.1272C96.8482 14.6635 96.4617 13.2097 95.6567 12.0021C95.2853 11.5291 94.81 11.1549 94.2704 10.9104C93.7309 10.666 93.1427 10.5584 92.5549 10.5968C91.9524 10.566 91.3514 10.6832 90.801 10.9386C90.2506 11.1941 89.7664 11.5806 89.388 12.0667C88.5669 13.2751 88.168 14.7368 88.257 16.2111C88.1679 17.649 88.568 19.0739 89.388 20.2386C89.7768 20.7078 90.2645 21.0785 90.8136 21.3221C91.3626 21.5658 91.9583 21.6758 92.5549 21.6439V21.6411Z" fill="#222230"/>
<path d="M112.488 24.8441C110.955 24.8861 109.437 24.5236 108.076 23.7908C106.857 23.109 105.866 22.0604 105.235 20.7836C104.577 19.331 104.239 17.7451 104.247 16.1408C104.255 14.5366 104.608 12.9543 105.281 11.5089C105.947 10.1984 106.969 9.11777 108.221 8.39995C109.59 7.64125 111.126 7.26228 112.678 7.29992C113.814 7.29657 114.943 7.48561 116.021 7.85956C117.008 8.1795 117.917 8.71553 118.687 9.43123L117.522 12.3711C116.865 11.8112 116.123 11.3658 115.327 11.0524C114.584 10.7586 113.795 10.6058 113 10.6014C112.373 10.5696 111.747 10.6782 111.164 10.9198C110.582 11.1614 110.056 11.5303 109.624 12.0012C108.818 13.2029 108.385 14.6301 108.382 16.0928C108.379 17.5555 108.807 18.9845 109.608 20.1896C110.046 20.6664 110.579 21.0386 111.171 21.2804C111.762 21.5222 112.397 21.6276 113.032 21.5894C113.817 21.5843 114.595 21.4315 115.327 21.1384C116.129 20.8222 116.872 20.3643 117.522 19.7853L118.687 22.7252C117.896 23.4399 116.965 23.9698 115.958 24.2789C114.837 24.6525 113.666 24.8432 112.488 24.8441Z" fill="#222230"/>
<path d="M127.732 24.8506C126.398 24.8779 125.084 24.5126 123.943 23.7973C122.832 23.0761 121.953 22.0294 121.418 20.7901C120.795 19.3455 120.49 17.776 120.525 16.1947C120.487 14.5914 120.792 12.9992 121.418 11.5319C121.968 10.2721 122.846 9.19556 123.954 8.42296C125.072 7.66782 126.383 7.27742 127.719 7.30231C128.998 7.26962 130.257 7.63565 131.332 8.35284C132.342 9.03924 133.08 10.0774 133.413 11.2789L133.027 11.5113V7.73682H137V24.6182H133.032V20.8066L133.419 20.9441C133.089 22.1375 132.349 23.1647 131.337 23.8317C130.258 24.5286 129.004 24.8828 127.732 24.8506ZM128.831 21.6413C129.421 21.6734 130.009 21.5598 130.548 21.3099C131.087 21.0601 131.561 20.6811 131.93 20.2043C132.649 18.965 133.028 17.547 133.028 16.1019C133.028 14.6567 132.649 13.2387 131.93 11.9995C131.559 11.527 131.084 11.153 130.545 10.9086C130.006 10.6642 129.418 10.5564 128.831 10.5942C128.228 10.5625 127.627 10.6793 127.077 10.9348C126.526 11.1903 126.042 11.5773 125.664 12.0641C124.847 13.2672 124.448 14.7214 124.533 16.1892C124.444 17.6272 124.844 19.052 125.664 20.2167C126.05 20.6912 126.536 21.0668 127.086 21.314C127.635 21.5612 128.233 21.6732 128.831 21.6413Z" fill="#222230"/>
<path d="M48.5234 43.9871V31.4274H49.3926L54.4733 43.3656H53.9124L58.9413 31.4247H59.829V43.9843H58.8389V32.7241L59.3346 32.7777L54.5689 43.9885H53.7862L48.9447 32.7502L49.4856 32.7172L49.5016 43.9926L48.5234 43.9871Z" fill="#222230"/>
<path d="M67.2074 43.9751H66.1003L71.387 31.4154H72.3426L77.6093 43.9751H76.5261L71.6196 32.1497H72.0954L67.2074 43.9751ZM68.2905 40.6144L68.6294 39.6629H75.0922L75.4497 40.6144H68.2905Z" fill="#222230"/>
<path d="M83.8997 43.9752V31.421H88.5511C89.6038 31.3515 90.647 31.6636 91.5014 32.3038C91.8536 32.618 92.1307 33.0122 92.311 33.4557C92.4913 33.8992 92.5699 34.3799 92.5407 34.86C92.5641 35.333 92.4818 35.8053 92.3002 36.24C92.1186 36.6748 91.8425 37.0603 91.4934 37.3667C90.6453 38.0149 89.6035 38.3333 88.5511 38.266L89.7471 38.0391C90.1559 38.0285 90.5565 38.1586 90.8861 38.409C91.2523 38.7282 91.5194 39.1519 91.6542 39.6273L93.2052 43.9848H92.0981L90.615 39.8033C90.4801 39.3212 90.1757 38.9086 89.7618 38.6469C89.3052 38.4431 88.8099 38.3491 88.3132 38.3719H84.903V43.9725L83.8997 43.9752ZM84.9389 37.43H88.5033C89.3004 37.4923 90.0931 37.261 90.7412 36.7768C90.9974 36.5346 91.1973 36.2357 91.3261 35.9024C91.455 35.5691 91.5095 35.2099 91.4855 34.8518C91.5111 34.5012 91.4582 34.1492 91.331 33.8232C91.2037 33.4972 91.0056 33.206 90.7519 32.9721C90.0941 32.5025 89.2999 32.282 88.5033 32.3478H84.9389V37.43Z" fill="#222230"/>
<path d="M99.8899 43.9746V31.4204H100.929V43.9746H99.8899ZM107.465 43.9746L100.541 37.6068L107.139 31.4191H108.536L101.564 37.9643L101.599 37.1887L108.908 43.9801L107.465 43.9746Z" fill="#222230"/>
<path d="M114.702 43.9744V31.4203H122.171V32.3553H115.738V37.135H121.824V38.0865H115.738V43.0367H122.166V43.9717L114.702 43.9744Z" fill="#222230"/>
<path d="M131.6 43.9751V32.3669H127.25V31.4154H136.995V32.3669H132.655V43.9751H131.6Z" fill="#222230"/>
</svg>
